# AST/ASF file generated using VICON BodyLanguage
# -----------------------------------------------
:version 1.10
:name VICON
:units
  mass 1.0
  length 0.45
  angle deg
:documentation
   .ast/.asf automatically generated from VICON data using
   VICON BodyBuilder and BodyLanguage model FoxedUp or BRILLIANT.MOD
:root
   order TX TY TZ RX RY RZ
   axis XYZ
   position 0 0 0
   orientation 0 0 0
:bonedata
  begin
     id 1
     name lhipjoint
     direction 0.635348 -0.713158 0.296208
     length 2.47672
     axis 0 0 0  XYZ
  end
  begin
     id 2
     name lfemur
     direction 0.34202 -0.939693 0
     length 7.03469
     axis 0 0 20  XYZ
    dof rx ry rz
    limits (-160.0 20.0)
           (-70.0 70.0)
           (-60.0 70.0)
  end
  begin
     id 3
     name ltibia
     direction 0.34202 -0.939693 0
     length 7.78223
     axis 0 0 20   XYZ
    dof rx
    limits (-10.0 170.0)
  end
  begin
     id 4
     name lfoot
     direction 0.0943956 -0.25935 0.961159
     length 2.21094
     axis -90 7.62852e-016 20   XYZ
    dof rx rz
    limits (-45.0 90.0)
           (-70.0 20.0)
  end
  begin
     id 5
     name ltoes
     direction 1.53588e-011 -4.22168e-011 1
     length 1.10557
     axis -90 7.62852e-016 20   XYZ
    dof rx
    limits (-90.0 20.0)
  end
  begin
     id 6
     name rhipjoint
     direction -0.615332 -0.727972 0.302361
     length 2.42632
     axis 0 0 0  XYZ
  end
  begin
     id 7
     name rfemur
     direction -0.34202 -0.939693 0
     length 7.12424
     axis 0 0 -20   XYZ
    dof rx ry rz
    limits (-160.0 20.0)
           (-70.0 70.0)
           (-70.0 60.0)
  end
  begin
     id 8
     name rtibia
     direction -0.34202 -0.939693 0
     length 7.68841
     axis 0 0 -20   XYZ
    dof rx
    limits (-10.0 170.0)
 end
 begin
     id 9
     name rfoot
     direction -0.110037 -0.302326 0.946832
     length 2.3432
     axis -90 -7.62852e-016 -20   XYZ
    dof rx rz
    limits (-45.0 90.0)
           (-20.0 70.0)
  end
  begin
     id 10
     name rtoes
     direction -1.53483e-011 -4.21845e-011 1
     length 1.16452
     axis -90 -7.62852e-016 -20   XYZ
    dof rx
    limits (-90.0 20.0)
  end
  begin
     id 11
     name lowerback
     direction -0.000160986 0.992898 -0.118971
     length 2.13918
     axis 0 0 0   XYZ
    dof rx ry rz
    limits (-20.0 45.0)
           (-30.0 30.0)
           (-30.0 30.0)
  end
  begin
     id 12
     name upperback
     direction 0.0260828 0.99954 -0.015469
     length 2.14478
     axis 0 0 0   XYZ
    dof rx ry rz
    limits (-10.0 35.0)
           (-20.0 20.0)
           (-20.0 20.0)
  end
  begin
     id 13
     name thorax
     direction 0.0259839 0.99887 0.0397948
     length 2.17484
     axis 0 0 0   XYZ
    dof rx ry rz
    limits (-10.0 35.0)
           (-20.0 20.0)
           (-20.0 20.0)
  end
  begin
     id 14
     name lowerneck
     direction -0.059672 0.98735 0.1469
     length 1.6481
     axis 0 0 0   XYZ
    dof rx ry rz
    limits (-20.0 45.0)
           (-30.0 30.0)
           (-30.0 30.0)
  end
  begin
     id 15
     name upperneck
     direction 0.0646048 0.988755 -0.134867
     length 1.67929
     axis 0 0 0   XYZ
    dof rx ry rz
    limits (-20.0 45.0)
           (-30.0 30.0)
           (-30.0 30.0)
  end
  begin
     id 16
     name head
     direction 0.0260009 0.997706 -0.0625036
     length 1.68654
     axis 0 0 0   XYZ
    dof rx ry rz
    limits (-20.0 45.0)
           (-30.0 30.0)
           (-30.0 30.0)
  end
  begin
     id 17
     name lclavicle
     direction 0.952978 0.229907 -0.197421
     length 3.45347
     axis 0 0 0   XYZ
    dof ry rz
    limits (-20.0 10.0)
           (0.0 20.0)
  end
  begin
     id 18
     name lhumerus
     direction 1 -4.48962e-011 -1.04258e-027
     length 5.1531
     axis 180 -30 -90   XYZ
    dof rx ry rz
    limits (-60.0 90.0)
           (-90.0 90.0)
           (-90.0 90.0)
  end
  begin
     id 19
     name lradius
     direction 1 -4.48969e-011 -2.22072e-027
     length 3.75138
     axis 180 -30 -90   XYZ
    dof rx
    limits (-10.0 170.0)
  end
  begin
     id 20
     name lwrist
     direction 1 -4.48902e-011 2.56793e-027
     length 1.87569
     axis -1.61769e-015 90 90   XYZ
    dof ry
    limits (-180.0 0.0)
 end
  begin
     id 21
     name lhand
     direction 1 -4.49075e-011 5.1474e-027
     length 0.529172
     axis -3.27988e-015 90 90   XYZ
    dof rx rz
    limits (-90.0 90.0)
           (-45.0 45.0)
  end
  begin
     id 22
     name lfingers
     direction 1 -4.49063e-011 1.02932e-026
     length 0.426632
     axis -6.5598e-015 90 90   XYZ
    dof rx
    limits (0.0 90.0)
  end
  begin
     id 23
     name lthumb
     direction 0.707107 -6.35044e-011 0.707107
     length 0.612561
     axis -90 45 2.19363e-014   XYZ
    dof rx rz
    limits (-45.0 45.0)
           (-45.0 45.0)
  end
  begin
     id 24
     name rclavicle
     direction -0.936448 0.323765 -0.135063
     length 3.28277
     axis 0 0 0   XYZ
    dof ry rz
    limits (-10.0 20.0)
           (-20.0 0.0)
  end
  begin
     id 25
     name rhumerus
     direction -1 -4.48967e-011 2.48575e-027
     length 5.29613
     axis 180 30 90   XYZ
    dof rx ry rz
    limits (-90.0 60.0)
           (-90.0 90.0)
           (-90.0 90.0)
  end
  begin
     id 26
     name rradius
     direction -1 -4.48964e-011 -6.49393e-029
     length 3.76144
     axis 180 30 90   XYZ
    dof rx
    limits (-10.0 170.0)
  end
  begin
     id 27
     name rwrist
     direction -1 -4.49007e-011 2.57144e-027
     length 1.88072
     axis -1.61769e-015 -90 -90   XYZ
    dof ry
    limits (-180.0 0.0)
  end
  begin
     id 28
     name rhand
     direction -1 -4.48932e-011 5.13787e-027
     length 0.747318
     axis -3.27988e-015 -90 -90   XYZ
    dof rx rz
    limits (-90.0 90.0)
           (-45.0 45.0)
  end
  begin
     id 29
     name rfingers
     direction -1 -4.48955e-011 1.02788e-026
     length 0.602507
     axis -6.5598e-015 -90 -90   XYZ
    dof rx
    limits (0.0 90.0)
  end
  begin
     id 30
     name rthumb
     direction -0.707107 -6.34874e-011 0.707107
     length 0.865083
     axis -90 -45 -2.19363e-014   XYZ
    dof rx rz
    limits (-45.0 45.0)
           (-45.0 45.0)
  end
:hierarchy
  begin
    root lhipjoint rhipjoint lowerback
    lhipjoint lfemur
    lfemur ltibia
    ltibia lfoot
    lfoot ltoes
    rhipjoint rfemur
    rfemur rtibia
    rtibia rfoot
    rfoot rtoes
    lowerback upperback
    upperback thorax
    thorax lowerneck lclavicle rclavicle
    lowerneck upperneck
    upperneck head
    lclavicle lhumerus
    lhumerus lradius
    lradius lwrist
    lwrist lhand lthumb
    lhand lfingers
    rclavicle rhumerus
    rhumerus rradius
    rradius rwrist
    rwrist rhand rthumb
    rhand rfingers
  end
